<svg width="250" height="250" viewBox="0 0 250 250" fill="none" xmlns="http://www.w3.org/2000/svg">
<rect width="250" height="250" rx="60" fill="white"/>
<g clip-path="url(#clip0_260_78)">
<mask id="mask0_260_78" style="mask-type:luminance" maskUnits="userSpaceOnUse" x="25" y="25" width="200" height="200">
<path d="M225 25H25V225H225V25Z" fill="white"/>
<path d="M93.6874 112.124C89.8889 100.725 100.737 89.8772 112.136 93.6757L206.222 125.037C219.325 129.408 219.573 147.857 206.589 152.578L166.988 166.976L152.59 206.578C147.869 219.561 129.42 219.314 125.049 206.21L93.6874 112.124Z" fill="black"/>
</mask>
<g mask="url(#mask0_260_78)">
<path d="M41.6665 95C41.6665 76.3315 41.6665 66.9974 45.2996 59.867C48.4954 53.5949 53.5948 48.4955 59.8668 45.2997C66.9973 41.6666 76.3314 41.6666 94.9998 41.6666H155C173.668 41.6666 183.002 41.6666 190.133 45.2997C196.405 48.4955 201.504 53.5949 204.7 59.867C208.333 66.9974 208.333 76.3315 208.333 95V155C208.333 173.668 208.333 183.002 204.7 190.133C201.504 196.405 196.405 201.504 190.133 204.7C183.002 208.333 173.668 208.333 155 208.333H94.9998C76.3314 208.333 66.9973 208.333 59.8668 204.7C53.5948 201.504 48.4954 196.405 45.2996 190.133C41.6665 183.002 41.6665 173.668 41.6665 155V95Z" fill="url(#paint0_linear_260_78)"/>
</g>
<mask id="mask1_260_78" style="mask-type:luminance" maskUnits="userSpaceOnUse" x="92" y="92" width="125" height="125">
<path d="M93.6874 112.124C89.8889 100.725 100.737 89.8772 112.136 93.6757L206.222 125.037C219.325 129.408 219.573 147.857 206.589 152.578L166.988 166.976L152.59 206.578C147.869 219.561 129.42 219.314 125.049 206.21L93.6874 112.124Z" fill="white"/>
</mask>
<g mask="url(#mask1_260_78)">
<g filter="url(#filter0_f_260_78)">
<path d="M41.6665 95C41.6665 76.3315 41.6665 66.9974 45.2996 59.867C48.4954 53.5949 53.5948 48.4955 59.8668 45.2997C66.9973 41.6666 76.3314 41.6666 94.9998 41.6666H155C173.668 41.6666 183.002 41.6666 190.133 45.2997C196.405 48.4955 201.504 53.5949 204.7 59.867C208.333 66.9974 208.333 76.3315 208.333 95V155C208.333 173.668 208.333 183.002 204.7 190.133C201.504 196.405 196.405 201.504 190.133 204.7C183.002 208.333 173.668 208.333 155 208.333H94.9998C76.3314 208.333 66.9973 208.333 59.8668 204.7C53.5948 201.504 48.4954 196.405 45.2996 190.133C41.6665 183.002 41.6665 173.668 41.6665 155V95Z" fill="url(#paint1_linear_260_78)"/>
</g>
</g>
<path d="M93.6874 112.124C89.8889 100.725 100.737 89.8772 112.136 93.6757L206.222 125.037C219.325 129.408 219.573 147.857 206.589 152.578L166.988 166.976L152.59 206.578C147.869 219.561 129.42 219.314 125.049 206.21L93.6874 112.124Z" fill="url(#paint2_linear_260_78)"/>
<path d="M93.6874 112.124C89.889 100.725 100.737 89.8771 112.137 93.6756L206.22 125.039C219.324 129.41 219.569 147.858 206.587 152.578L166.987 166.975L152.591 206.574L152.11 207.754C146.906 219.154 130.395 218.932 125.499 207.396L125.052 206.208L93.6874 112.124ZM110.159 99.6082C103.645 97.4379 97.4497 103.633 99.6201 110.147L130.976 204.231C133.473 211.717 144.016 211.861 146.715 204.443L161.111 164.843L161.387 164.208C162.097 162.773 163.334 161.652 164.854 161.099L204.454 146.703C211.873 144.004 211.729 133.461 204.242 130.964L110.159 99.6082Z" fill="url(#paint3_linear_260_78)"/>
</g>
<defs>
<filter id="filter0_f_260_78" x="8.33317" y="8.33329" width="233.333" height="233.333" filterUnits="userSpaceOnUse" color-interpolation-filters="sRGB">
<feFlood flood-opacity="0" result="BackgroundImageFix"/>
<feBlend mode="normal" in="SourceGraphic" in2="BackgroundImageFix" result="shape"/>
<feGaussianBlur stdDeviation="16.6667" result="effect1_foregroundBlur_260_78"/>
</filter>
<linearGradient id="paint0_linear_260_78" x1="125" y1="41.6666" x2="125" y2="208.333" gradientUnits="userSpaceOnUse">
<stop stop-color="#575757"/>
<stop offset="1" stop-color="#151515"/>
</linearGradient>
<linearGradient id="paint1_linear_260_78" x1="125" y1="41.6666" x2="125" y2="208.333" gradientUnits="userSpaceOnUse">
<stop stop-color="#575757"/>
<stop offset="1" stop-color="#151515"/>
</linearGradient>
<linearGradient id="paint2_linear_260_78" x1="97.2085" y1="97.2" x2="180.6" y2="180.583" gradientUnits="userSpaceOnUse">
<stop stop-color="#E3E3E5" stop-opacity="0.6"/>
<stop offset="1" stop-color="#BBBBC0" stop-opacity="0.6"/>
</linearGradient>
<linearGradient id="paint3_linear_260_78" x1="154.551" y1="92.9001" x2="154.551" y2="164.292" gradientUnits="userSpaceOnUse">
<stop stop-color="white"/>
<stop offset="1" stop-color="white" stop-opacity="0"/>
</linearGradient>
<clipPath id="clip0_260_78">
<rect width="200" height="200" fill="white" transform="translate(25 25)"/>
</clipPath>
</defs>
</svg>
